<svg xmlns="http://www.w3.org/2000/svg" viewBox="0 0 111.05 112.52"><defs><style>.cls-1{fill:#edb928;}.cls-1,.cls-2,.cls-3{fill-rule:evenodd;}.cls-2{fill:#8752a1;}.cls-3{fill:#40b6e9;}</style></defs><g id="Layer_2" data-name="Layer 2"><g id="Camada_1" data-name="Camada 1"><path class="cls-1" d="M6.43,19.81A5.18,5.18,0,0,0,6,29.38c1.64.68,7.8.7,13.64,2.32A46.31,46.31,0,0,1,51.28,63.54a45.68,45.68,0,0,1,1.66,14.28c-.09,3-.5,4.82,1.37,6.73a5.28,5.28,0,0,0,5.76,1.24c6.45-2.53,2.81-20.85,1.22-26.11A56.65,56.65,0,0,0,32.23,25.23C27.55,22.86,12.5,17.41,6.43,19.81Z"/><path class="cls-2" d="M75,23.44c-4.77,1-5.09,5.52-2.46,9.45a79,79,0,0,1,11,60.36A96.39,96.39,0,0,1,80,104.79c-1.59,4.47,1.2,8.42,5.78,7.62,5.63-1,8.09-15.83,9-21.14,3.16-18.14.62-35-6.41-51.61a79.77,79.77,0,0,0-5.19-9.86C81.45,27,79.51,22.46,75,23.44Z"/><path class="cls-3" d="M75.69.51c-8.59,4,1.6,11.74,4.22,15.14,8,10.4,14.19,20.32,18,33.8,1,3.47,1.78,7.09,2.43,10.68s3,6.72,7.43,5.13c9-3.21-4.49-32.2-7.39-38-4-8-7.85-13.1-13-19.45C84.08,3.86,80-1.49,75.69.51Z"/><path class="cls-1" d="M6.11,52.35c-3.66,1.92-3.74,5.43-2.18,7.76,1.84,2.77,5,1.88,8.41,3.36,11.6,5.1,11.81,23.45-4.4,26.2-7.36,1.25-6.71,12.06,2.88,10.4,21.55-3.74,26.52-30,12.32-42.23C20.74,55.78,11.18,49.69,6.11,52.35Z"/><path class="cls-3" d="M6.94,3.31C.93,5,1.84,13.19,8.8,13.73c6.64.51,11.1,1,17,2.91A64.74,64.74,0,0,1,45.2,26.83c1.85,1.49,3.6,3.78,7.16,2.84A5.22,5.22,0,0,0,56,23.26c-.49-2.32-3.2-4.05-4.8-5.23A72.63,72.63,0,0,0,39,10.45C33,7.49,14.55,1.21,6.94,3.31Z"/><path class="cls-3" d="M79.88,75.46a70.71,70.71,0,0,0-2-16.38c-1.09-4.64-2-11.5-8.34-10.06-8.34,1.89.24,10.51-.39,29.27-.42,12.45-4.81,19.1-3.57,22.72.74,2.15,2.94,3.85,6.2,3.18C78.17,102.9,79.92,82.8,79.88,75.46Z"/><path class="cls-3" d="M6.61,35.91a5.22,5.22,0,0,0,.18,10c1.81.53,5.28.62,7.38,1.1a26,26,0,0,1,6.49,2.49c13,6.83,11.92,17.68,19.24,14.76,10.19-4.08-5.54-21.46-19-26.29C17.79,36.84,10.11,34.53,6.61,35.91Z"/><path class="cls-3" d="M35.64,88C31.93,90,32,95.4,23.45,100.93c-2.75,1.79-5.81,2.57-5.37,7A5.26,5.26,0,0,0,25.57,112c6.11-2.52,17.89-14,17.65-19.61A5.18,5.18,0,0,0,35.64,88Z"/><path class="cls-3" d="M104.55,86.67c-5,1.49-3.84,5.8-6.24,14.34-.67,2.39-2.12,5.61-1.3,8.09a5.47,5.47,0,0,0,6.52,3.22c5.36-1.47,8-20.15,7.15-22.48A5.08,5.08,0,0,0,104.55,86.67Z"/><path class="cls-1" d="M97.18.46c-6.37,2.61-2,8.3.4,11.63s4.53,9.54,10.2,7.56c6.13-2.14,2.22-8.4-.19-11.91C106.32,5.89,105,4,103.86,2.52,102.31.5,100.06-.72,97.18.46Z"/><path class="cls-2" d="M4.3,70C-3.16,72.33-.38,84.81,8.54,82.24,16.26,80,13.26,67.15,4.3,70Z"/></g></g></svg>